<svg width="1061" height="944" viewBox="0 0 1061 944" fill="none" xmlns="http://www.w3.org/2000/svg">
<path d="M68.416 794.288H45.7715" stroke="#263238" stroke-width="1.1133" stroke-miterlimit="10"/>
<path d="M985.643 794.288H104.232" stroke="#263238" stroke-width="1.1133" stroke-miterlimit="10"/>
<path d="M654.017 888.961C695.418 888.961 728.98 879.728 728.98 868.339C728.98 856.95 695.418 847.717 654.017 847.717C612.615 847.717 579.053 856.95 579.053 868.339C579.053 879.728 612.615 888.961 654.017 888.961Z" fill="#263238"/>
<path d="M266.568 915.182C188.545 915.182 177.025 903.909 175.891 894.807C175.633 892.911 175.82 890.982 176.436 889.171C177.053 887.36 178.082 885.717 179.443 884.373C200.459 862.32 321.576 871.644 489.165 884.545C512.549 886.346 536.723 888.196 561.514 890.046C730.855 902.627 799.035 900.999 813.12 883.978C815.981 880.5 816.573 876.159 814.995 870.288C808.285 845.744 718.595 845.62 684.628 847.545C683.851 847.585 683.089 847.318 682.507 846.801C681.926 846.284 681.571 845.558 681.52 844.782C681.497 844.397 681.55 844.012 681.677 843.649C681.803 843.285 682.001 842.95 682.258 842.663C682.515 842.376 682.826 842.144 683.174 841.978C683.521 841.812 683.898 841.717 684.283 841.698C697.283 840.934 811.492 835.186 820.643 868.832C822.74 876.578 821.778 882.769 817.634 887.801C801.822 906.993 737.096 909.04 561.095 895.966C536.279 894.116 512.105 892.266 488.721 890.466C328.976 878.132 202.778 868.438 183.686 888.492C182.931 889.209 182.358 890.095 182.015 891.078C181.671 892.06 181.568 893.11 181.712 894.141C182.428 899.962 196.513 912.987 309.982 908.448C373.451 905.981 437.216 899 437.857 898.926C438.6 898.896 439.326 899.149 439.89 899.634C440.453 900.119 440.812 900.799 440.893 901.538C440.975 902.277 440.773 903.019 440.328 903.615C439.884 904.211 439.23 904.615 438.498 904.748C437.857 904.748 373.895 911.753 310.229 914.294C293.85 914.886 279.345 915.182 266.568 915.182Z" fill="white" stroke="#263238" stroke-width="1.1133" stroke-miterlimit="10"/>
<path d="M626.142 886.445C674.927 886.445 714.476 846.897 714.476 798.111C714.476 749.326 674.927 709.778 626.142 709.778C577.357 709.778 537.809 749.326 537.809 798.111C537.809 846.897 577.357 886.445 626.142 886.445Z" fill="white"/>
<path d="M626.142 886.445C642.217 886.455 657.99 882.078 671.76 873.784C685.531 865.49 696.776 853.595 704.284 839.381C711.792 825.167 715.278 809.174 714.366 793.125C713.454 777.075 708.178 761.58 699.108 748.308C698.146 786.789 676.907 843.598 566.447 863.134C582.708 878.132 604.021 886.455 626.142 886.445Z" fill="#53b929"/>
<path opacity="0.3" d="M626.142 886.445C642.217 886.455 657.99 882.078 671.76 873.784C685.531 865.49 696.776 853.595 704.284 839.381C711.792 825.167 715.278 809.174 714.366 793.125C713.454 777.075 708.178 761.58 699.108 748.308C698.146 786.789 676.907 843.598 566.447 863.134C582.708 878.132 604.021 886.455 626.142 886.445Z" fill="white"/>
<path d="M669.606 832.744C653.854 817.42 634.725 806.005 613.759 799.419C634.725 806.005 653.854 817.42 669.606 832.744H674.293C684.689 822.437 693.642 810.771 700.908 798.062C659.541 754.352 619.309 758.816 619.309 758.816C619.309 758.816 659.665 754.352 701.032 798.111C703.301 794.041 705.201 790.218 706.755 786.69C689.537 762.566 659.887 746.113 643.976 743.646L640.276 742.758C634.574 741.721 628.739 741.638 623.009 742.511C628.739 741.638 634.574 741.721 640.276 742.758L650.809 713.157C645.832 711.735 640.739 710.752 635.59 710.222C628.757 721.248 611.169 756.473 611.169 826.355C611.169 756.473 628.757 721.248 635.59 710.222C632.63 709.951 629.669 709.778 626.635 709.778C623.297 709.788 619.962 709.985 616.645 710.37C606.236 726.108 586.329 763.281 584.997 819.078C605.644 826.602 633.271 832.226 669.606 832.744ZM689.562 814.762C654.386 780.474 615.56 778.674 615.56 778.674C615.56 778.674 654.386 780.474 689.562 814.762V814.762Z" stroke="#263238" stroke-width="1.1133" stroke-linecap="round" stroke-linejoin="round"/>
<path d="M584.898 819.226C586.23 763.429 606.137 726.256 616.546 710.518C608.401 711.432 600.423 713.474 592.841 716.586C574.146 744.012 563.585 776.165 562.377 809.335C569.621 813.202 577.15 816.509 584.898 819.226Z" stroke="#263238" stroke-width="1.1133" stroke-linecap="round" stroke-linejoin="round"/>
<path d="M592.841 716.512C577.587 722.801 564.394 733.229 554.753 746.62C545.111 760.01 539.405 775.828 538.277 792.29C545.541 798.968 553.642 804.673 562.377 809.261C563.586 776.091 574.146 743.938 592.841 716.512V716.512Z" stroke="#263238" stroke-width="1.1133" stroke-linecap="round" stroke-linejoin="round"/>
<path d="M706.631 786.69C708.554 782.443 710.202 778.076 711.565 773.617C707.877 761.036 701.45 749.428 692.744 739.625L685.911 762.418L692.62 739.625C687.172 733.513 680.905 728.184 673.997 723.789L666.473 751.934L674.046 723.912C666.823 719.293 658.961 715.76 650.711 713.429L640.178 743.029C656.31 745.348 681.249 754.845 706.631 786.69Z" stroke="#263238" stroke-width="1.1133" stroke-linecap="round" stroke-linejoin="round"/>
<path d="M714.943 802.28C714.943 800.997 714.943 799.813 714.943 798.432C714.943 790.034 713.747 781.678 711.391 773.617C710.028 778.076 708.38 782.443 706.458 786.69C705.4 789.297 704.146 791.82 702.708 794.239C702.856 794.387 700.587 797.963 700.735 798.111C700.883 798.259 698.268 802.551 698.268 802.403C692.398 812.838 674.686 832.818 674.982 832.818C674.686 832.818 665.412 841.23 660.355 845.472C651.105 853.134 641.302 860.101 631.025 866.316H631.667H631.025C620.919 872.425 610.467 877.943 599.723 882.843C608.351 885.558 617.343 886.939 626.388 886.938C627.893 886.938 629.373 886.938 630.828 886.938C648.909 877.096 677.647 854.649 714.943 802.28Z" stroke="#263238" stroke-width="1.1133" stroke-linecap="round" stroke-linejoin="round"/>
<path d="M714.944 802.28C677.647 854.649 648.91 877.096 630.977 886.716C652.968 885.609 673.757 876.344 689.284 860.731C704.81 845.118 713.959 824.277 714.944 802.28V802.28Z" stroke="#263238" stroke-width="1.1133" stroke-linecap="round" stroke-linejoin="round"/>
<path d="M557.369 853.588C568.314 867.347 583.111 877.532 599.871 882.843C610.615 877.943 621.067 872.424 631.174 866.316C610.108 870.214 577.152 860.544 557.369 853.588Z" stroke="#263238" stroke-width="1.1133" stroke-linecap="round" stroke-linejoin="round"/>
<path d="M631.174 866.316C641.451 860.101 651.254 853.134 660.503 845.473C596.887 851.985 557.641 832.276 540.966 821.077C544.113 832.937 549.7 844.01 557.37 853.588C577.153 860.544 610.108 870.214 631.174 866.316Z" stroke="#263238" stroke-width="1.1133" stroke-linecap="round" stroke-linejoin="round"/>
<path d="M660.503 845.472C665.56 841.23 670.124 836.987 674.292 832.793H669.606C669.951 833.114 670.296 833.435 670.617 833.78C670.296 833.435 669.951 833.114 669.606 832.793C633.271 832.275 605.643 826.651 584.898 819.276C554.582 808.768 543.654 797.47 538.277 792.413C538.129 794.436 538.03 796.434 538.03 798.481C538.033 806.124 539.02 813.735 540.966 821.126C557.641 832.275 596.886 851.985 660.503 845.472Z" stroke="#263238" stroke-width="1.1133" stroke-linecap="round" stroke-linejoin="round"/>
<path d="M626.142 886.445C674.927 886.445 714.476 846.897 714.476 798.111C714.476 749.326 674.927 709.778 626.142 709.778C577.357 709.778 537.809 749.326 537.809 798.111C537.809 846.897 577.357 886.445 626.142 886.445Z" stroke="#263238" stroke-width="1.1133" stroke-linecap="round" stroke-linejoin="round"/>
<path d="M788.848 647.148C788.848 647.148 782.804 627.537 765.192 620.482C752.858 615.549 738.872 616.881 726.168 619.076C702.537 623.196 681.915 632.594 659.566 640.611C659.566 640.611 669.137 637.083 708.383 656.225C722.838 663.255 739.365 668.732 755.892 668.362C769.138 668.066 789.514 664.267 788.848 647.148Z" fill="#53b929"/>
<path d="M790.969 589.5C790.969 589.5 790.969 568.952 776.168 557.137C765.857 548.898 751.994 546.061 739.167 544.507C715.339 541.621 692.892 544.655 669.112 545.864C669.112 545.864 679.3 545.272 711.343 574.922C723.158 585.825 737.416 595.84 753.277 600.255C766.055 603.807 786.627 606.077 790.969 589.5Z" fill="#53b929"/>
<path d="M831.448 665.747C831.448 665.747 815.439 652.895 815.39 633.926C815.39 620.729 821.729 608.124 828.463 597.147C840.994 576.673 857.324 560.985 873.062 543.101C873.062 543.101 866.254 550.699 869.559 594.236C870.792 610.27 869.756 627.66 863.318 642.88C858.261 655.115 847.235 672.654 831.448 665.747Z" fill="#53b929"/>
<path d="M888.183 697.272C888.183 697.272 885.913 676.872 899.283 663.403C908.558 654.055 922.002 649.614 934.508 646.605C957.843 640.981 980.488 641.4 1004.24 639.846C1004.24 639.846 994.079 640.413 965.663 673.566C955.204 685.9 942.204 697.37 926.886 703.611C914.676 708.618 894.498 713.231 888.183 697.272Z" fill="#53b929"/>
<path d="M884.557 624.528C884.557 624.528 864.206 621.74 854.438 605.485C847.63 594.187 846.618 580.077 846.742 567.201C846.989 543.225 852.958 521.345 857.275 497.936C857.275 497.936 855.326 507.95 880.536 543.595C889.811 556.742 897.803 572.184 900.27 588.563C902.021 601.711 901.552 622.406 884.557 624.528Z" fill="#53b929"/>
<path d="M943.116 587.995C943.116 587.995 957.744 602.401 976.59 600.329C989.688 598.824 1001.48 591.005 1011.59 583.062C1030.44 568.262 1044.13 550.156 1060.04 532.469C1060.04 532.469 1053.3 540.092 1009.67 541.892C993.61 542.558 976.466 545.592 962.085 553.782C950.541 560.245 934.433 573.244 943.116 587.995Z" fill="#53b929"/>
<path d="M926.17 573.763C926.17 573.763 946.594 575.81 959.914 562.317C969.189 552.919 973.481 539.45 976.368 526.895C981.745 503.535 981.104 480.866 982.386 457.111C982.386 457.111 981.942 467.274 949.061 496.036C936.974 506.618 925.504 519.741 919.46 535.109C914.551 547.467 910.136 567.694 926.17 573.763Z" fill="#53b929"/>
<path d="M853.229 772.605L817.955 685.801L777.278 585.43" stroke="#263238" stroke-width="1.1133" stroke-linecap="round" stroke-linejoin="round"/>
<path d="M861.369 757.682L896.619 636.985L934.606 562.391" stroke="#263238" stroke-width="1.1133" stroke-linecap="round" stroke-linejoin="round"/>
<path d="M874.911 710.222L910.185 689.871" stroke="#263238" stroke-width="1.1133" stroke-linecap="round" stroke-linejoin="round"/>
<path d="M896.619 636.985L878.981 597.64" stroke="#263238" stroke-width="1.1133" stroke-linecap="round" stroke-linejoin="round"/>
<path d="M918.696 597.838L961.716 578.647" stroke="#263238" stroke-width="1.1133" stroke-linecap="round" stroke-linejoin="round"/>
<path d="M824.738 702.082L839.662 642.412" stroke="#263238" stroke-width="1.1133" stroke-linecap="round" stroke-linejoin="round"/>
<path d="M804.955 656.718L770.495 638.341" stroke="#263238" stroke-width="1.1133" stroke-linecap="round" stroke-linejoin="round"/>
<path d="M871.31 815.995H841.906C837.1 815.993 832.444 814.314 828.743 811.248C825.041 808.181 822.526 803.919 821.63 799.197L811.171 744.115H902.045L891.611 799.197C890.71 803.921 888.189 808.184 884.484 811.25C880.778 814.316 876.119 815.994 871.31 815.995Z" fill="#263238" stroke="#263238" stroke-width="1.1133" stroke-linecap="round" stroke-linejoin="round"/>
<path d="M43.7236 480.199C43.7236 473.367 46.881 468.334 53.9852 468.334C61.0894 468.334 64.3701 473.268 64.3701 480.199V504.176C64.3701 511.009 61.2127 516.041 53.9852 516.041C46.7577 516.041 43.7236 511.108 43.7236 504.176V480.199ZM46.807 504.373C46.807 509.479 48.8298 513.229 53.9852 513.229C59.1407 513.229 61.3854 509.479 61.3854 504.373V480.002C61.3854 474.896 59.3133 471.147 53.9852 471.147C48.6571 471.147 46.807 474.896 46.807 480.002V504.373Z" fill="#263238"/>
<path d="M69.2295 480.199C69.2295 473.367 72.3869 468.334 79.4911 468.334C86.5953 468.334 89.876 473.268 89.876 480.199V504.176C89.876 511.009 86.7186 516.041 79.4911 516.041C72.2636 516.041 69.2295 511.108 69.2295 504.176V480.199ZM72.3129 504.373C72.3129 509.479 74.3356 513.229 79.4911 513.229C84.6465 513.229 86.8913 509.479 86.8913 504.373V480.002C86.8913 474.896 84.8192 471.147 79.4911 471.147C74.163 471.147 72.3129 474.896 72.3129 480.002V504.373Z" fill="#263238"/>
<path d="M104.701 468.729C111.953 468.729 114.766 473.293 114.766 480.126V485.232C114.766 492.632 111.337 496.332 103.912 496.332H98.0658V515.646H94.9824V468.779L104.701 468.729ZM103.912 493.52C109.339 493.52 111.682 491.053 111.682 485.429V479.928C111.682 474.847 109.931 471.541 104.701 471.541H98.0658V493.52H103.912Z" fill="#263238"/>
<path d="M139.161 480.052V481.063H136.201V479.854C136.201 474.921 134.326 471.147 129.245 471.147C124.164 471.147 122.264 474.773 122.264 479.706C122.264 491.078 139.211 491.275 139.211 504.225C139.211 510.984 136.275 515.942 129.097 515.942C121.919 515.942 118.983 511.009 118.983 504.225V501.759H121.943V504.373C121.943 509.307 123.868 513.007 129.023 513.007C134.178 513.007 136.127 509.381 136.127 504.373C136.127 493.101 119.181 492.903 119.181 479.854C119.181 472.799 122.264 468.261 129.048 468.187C135.831 468.113 139.161 473.293 139.161 480.052Z" fill="#263238"/>
<path d="M146.857 509.751V515.646H143.848V509.751H146.857Z" fill="#263238"/>
<path d="M155.244 509.751V515.646H152.21V509.751H155.244Z" fill="#263238"/>
<path d="M163.606 509.751V515.646H160.498V509.751H163.606Z" fill="#263238"/>
<path d="M53.6398 536.984C60.892 536.984 63.704 541.522 63.704 548.355V553.461C63.704 560.862 60.2753 564.586 52.8504 564.586H47.029V583.876H43.9209V537.008L53.6398 536.984ZM52.8504 561.651C58.2772 561.651 60.6206 559.184 60.6206 553.535V548.035C60.6206 542.953 58.8693 539.672 53.6398 539.672H47.029V561.651H52.8504Z" fill="#263238"/>
<path d="M71.9428 573.442L69.5994 583.827H66.7627L76.9996 536.959H81.5631L92.022 583.827H88.9632L86.4965 573.442H71.9428ZM72.4115 570.753H86.0772L79.0963 540.462L72.4115 570.753Z" fill="#263238"/>
<path d="M116.64 548.429V551.907H113.631V548.232C113.631 543.298 111.707 539.376 106.527 539.376C101.347 539.376 99.4472 543.2 99.4472 548.232V572.628C99.4472 577.561 101.371 581.385 106.527 581.385C111.682 581.385 113.631 577.635 113.631 572.628V562.49H107.464V559.677H116.64V572.406C116.64 579.189 113.68 584.271 106.527 584.271C99.3732 584.271 96.4131 579.189 96.4131 572.406V548.429C96.4131 541.67 99.3485 536.564 106.527 536.564C113.705 536.564 116.64 541.67 116.64 548.429Z" fill="#263238"/>
<path d="M137.682 558.641V561.453H124.879V581.015H140.296V583.827H121.796V536.959H140.296V539.771H124.879V558.641H137.682Z" fill="#263238"/>
<path d="M158.525 583.876H155.713V537.008H159.734L173.794 576.476V537.008H176.606V583.876H173.202L158.402 541.942L158.525 583.876Z" fill="#263238"/>
<path d="M181.712 548.429C181.712 541.596 184.845 536.564 191.949 536.564C199.053 536.564 202.334 541.498 202.334 548.429V572.406C202.334 579.239 199.201 584.271 191.949 584.271C184.697 584.271 181.712 579.337 181.712 572.406V548.429ZM184.795 572.628C184.795 577.709 186.793 581.459 191.949 581.459C197.104 581.459 199.349 577.709 199.349 572.628V548.232C199.349 543.126 197.277 539.376 191.949 539.376C186.621 539.376 184.795 543.126 184.795 548.232V572.628Z" fill="#263238"/>
<path d="M215.334 583.876V539.796H205.837V536.984H228.037V539.796H218.442V583.876H215.334Z" fill="#263238"/>
<path d="M257.416 559.826V562.638H245.304V583.876H242.221V537.008H260.03V539.82H245.23V559.85L257.416 559.826Z" fill="#263238"/>
<path d="M264.521 548.429C264.521 541.596 267.678 536.564 274.782 536.564C281.886 536.564 285.167 541.498 285.167 548.429V572.406C285.167 579.239 282.01 584.271 274.782 584.271C267.555 584.271 264.521 579.337 264.521 572.406V548.429ZM267.604 572.628C267.604 577.709 269.627 581.459 274.782 581.459C279.938 581.459 282.182 577.709 282.182 572.628V548.232C282.182 543.126 280.11 539.376 274.782 539.376C269.454 539.376 267.604 543.126 267.604 548.232V572.628Z" fill="#263238"/>
<path d="M293.208 572.554C293.208 577.487 295.083 581.459 300.239 581.459C305.394 581.459 307.269 577.586 307.269 572.554V536.984H310.155V572.406C310.155 579.115 307.343 584.271 300.288 584.271C293.233 584.271 290.224 579.115 290.224 572.406V536.984H293.307L293.208 572.554Z" fill="#263238"/>
<path d="M318.369 583.876H315.557V537.008H319.577L333.638 576.476V537.008H336.45V583.876H333.046L318.369 541.942V583.876Z" fill="#263238"/>
<path d="M351.965 536.984C359.217 536.984 362.35 541.72 362.35 548.627V572.208C362.35 579.115 359.217 583.876 351.965 583.876H341.654V537.008L351.965 536.984ZM351.965 581.064C357.195 581.064 359.365 577.512 359.365 572.356V548.503C359.365 543.348 357.17 539.796 351.965 539.796H344.787V581.064H351.965Z" fill="#263238"/>
<path d="M469.209 699.935C414.3 699.935 381.295 651.218 369.578 608.371L369.183 606.866C368.559 604.788 368.36 602.606 368.599 600.45C368.837 598.294 369.508 596.208 370.572 594.317C371.635 592.426 373.069 590.769 374.787 589.445C376.505 588.12 378.473 587.157 380.573 586.611C382.672 586.064 384.86 585.948 387.006 586.267C389.152 586.586 391.211 587.334 393.061 588.468C394.911 589.601 396.513 591.096 397.772 592.862C399.031 594.629 399.92 596.632 400.387 598.75L400.683 599.86C409.588 632.47 433.836 669.743 472.737 667.597C480.051 667.343 487.231 665.554 493.81 662.346C500.388 659.137 506.218 654.581 510.921 648.973C532.259 624.503 541.805 571.296 539.683 544.458C539.483 542.735 539.631 540.99 540.12 539.327C540.609 537.663 541.428 536.115 542.528 534.775C543.629 533.436 544.988 532.331 546.525 531.529C548.062 530.726 549.745 530.241 551.473 530.103C553.202 529.966 554.94 530.178 556.585 530.727C558.229 531.277 559.746 532.152 561.045 533.3C562.344 534.449 563.398 535.848 564.144 537.413C564.89 538.978 565.312 540.678 565.387 542.41C567.854 572.282 564.597 636.491 535.219 670.162C527.699 679.016 518.428 686.217 507.988 691.311C497.549 696.405 486.168 699.283 474.562 699.763C472.761 699.886 470.96 699.935 469.209 699.935Z" fill="white"/>
<path d="M551.499 530.57C548.091 530.847 544.933 532.465 542.717 535.069C540.502 537.673 539.411 541.05 539.683 544.458C540.719 557.556 538.968 576.92 534.429 596.259C540.912 595.985 547.394 596.819 553.596 598.726C552.128 617.284 545.611 635.087 534.75 650.206C510.798 683.482 474.882 694.114 446.934 690.118C434.428 688.342 420.096 681.78 408.034 675.046C424.401 691.007 446.348 699.954 469.209 699.985C470.96 699.985 472.761 699.985 474.562 699.837C486.168 699.357 497.549 696.479 507.988 691.385C518.428 686.291 527.699 679.09 535.219 670.236C564.597 636.565 567.755 572.356 565.387 542.484C565.265 540.787 564.808 539.131 564.043 537.611C563.278 536.092 562.219 534.739 560.927 533.631C559.636 532.523 558.138 531.682 556.52 531.157C554.901 530.632 553.195 530.432 551.499 530.57Z" fill="#53b929"/>
<path opacity="0.5" d="M551.499 530.57C548.091 530.847 544.933 532.465 542.717 535.069C540.502 537.673 539.411 541.05 539.683 544.458C540.719 557.556 538.968 576.92 534.429 596.259C540.912 595.985 547.394 596.819 553.596 598.726C552.128 617.284 545.611 635.087 534.75 650.206C510.798 683.482 474.882 694.114 446.934 690.118C434.428 688.342 420.096 681.78 408.034 675.046C424.401 691.007 446.348 699.954 469.209 699.985C470.96 699.985 472.761 699.985 474.562 699.837C486.168 699.357 497.549 696.479 507.988 691.385C518.428 686.291 527.699 679.09 535.219 670.236C564.597 636.565 567.755 572.356 565.387 542.484C565.265 540.787 564.808 539.131 564.043 537.611C563.278 536.092 562.219 534.739 560.927 533.631C559.636 532.523 558.138 531.682 556.52 531.157C554.901 530.632 553.195 530.432 551.499 530.57Z" fill="white"/>
<path d="M469.209 699.935C414.3 699.935 381.295 651.218 369.578 608.371L369.183 606.866C368.559 604.788 368.36 602.606 368.599 600.45C368.837 598.294 369.508 596.208 370.572 594.317C371.635 592.426 373.069 590.769 374.787 589.445C376.505 588.12 378.473 587.157 380.573 586.611C382.672 586.064 384.86 585.948 387.006 586.267C389.152 586.586 391.211 587.334 393.061 588.468C394.911 589.601 396.513 591.096 397.772 592.862C399.031 594.629 399.92 596.632 400.387 598.75L400.683 599.86C409.588 632.47 433.836 669.743 472.737 667.597C480.051 667.343 487.231 665.554 493.81 662.346C500.388 659.137 506.218 654.581 510.921 648.973C532.259 624.503 541.805 571.296 539.683 544.458C539.483 542.735 539.631 540.99 540.12 539.327C540.609 537.663 541.428 536.115 542.528 534.775C543.629 533.436 544.988 532.331 546.525 531.529C548.062 530.726 549.745 530.241 551.473 530.103C553.202 529.966 554.94 530.178 556.585 530.727C558.229 531.277 559.746 532.152 561.045 533.3C562.344 534.449 563.398 535.848 564.144 537.413C564.89 538.978 565.312 540.678 565.387 542.41C567.853 572.282 564.597 636.491 535.219 670.162C527.699 679.016 518.428 686.217 507.988 691.311C497.549 696.405 486.168 699.283 474.562 699.763C472.761 699.886 470.96 699.935 469.209 699.935Z" stroke="#263238" stroke-width="1.1133" stroke-linecap="round" stroke-linejoin="round"/>
<path d="M437.537 666.561C438.844 660.517 424.389 669.965 412.277 678.771C416.758 682.557 421.58 685.918 426.683 688.81C431 681.78 436.279 672.382 437.537 666.561Z" fill="#53b929" stroke="#263238" stroke-width="1.1133" stroke-linecap="round" stroke-linejoin="round"/>
<path d="M469.209 699.936C470.96 699.936 472.761 699.936 474.562 699.788C479.803 699.494 485.009 698.76 490.127 697.592C483.319 688.712 473.945 676.97 471.256 676.082C468.173 675.046 462.228 690.167 458.923 699.344C462.337 699.742 465.772 699.939 469.209 699.936Z" fill="#53b929" stroke="#263238" stroke-width="1.1133" stroke-linecap="round" stroke-linejoin="round"/>
<path d="M400.683 599.86L400.387 598.75C399.92 596.632 399.031 594.629 397.772 592.863C396.513 591.096 394.911 589.601 393.061 588.468C391.211 587.334 389.152 586.586 387.006 586.267C384.86 585.948 382.672 586.065 380.573 586.611C378.473 587.157 376.505 588.121 374.787 589.445C373.069 590.769 371.635 592.426 370.572 594.317C369.508 596.208 368.837 598.294 368.599 600.45C368.36 602.606 368.559 604.788 369.183 606.866L369.578 608.371C373.691 623.418 380.009 637.774 388.325 650.971L417.704 636.985C410 625.646 404.247 613.098 400.683 599.86Z" fill="#53b929" stroke="#263238" stroke-width="1.1133" stroke-linecap="round" stroke-linejoin="round"/>
<path d="M535.219 670.162C537.476 667.549 539.569 664.797 541.484 661.923C532.16 658.741 518.198 654.35 513.018 654.819C506.876 655.386 515.214 675.12 519.506 684.42C525.283 680.298 530.557 675.513 535.219 670.162Z" fill="#53b929" stroke="#263238" stroke-width="1.1133" stroke-linecap="round" stroke-linejoin="round"/>
<path d="M535.737 617.448C534.75 619.422 546.812 628.203 554.952 633.852C557.534 626.168 559.611 618.324 561.169 610.369C551.302 612.342 536.699 615.524 535.737 617.448Z" fill="#53b929" stroke="#263238" stroke-width="1.1133" stroke-linecap="round" stroke-linejoin="round"/>
<path d="M565.165 580.965C565.708 573.935 565.979 567.226 566.004 561.059C557.518 565.721 547.454 572.184 547.454 576.426C547.454 580.669 556.877 581.187 565.165 580.965Z" fill="#53b929" stroke="#263238" stroke-width="1.1133" stroke-linecap="round" stroke-linejoin="round"/>
<path d="M432.357 390.115C432.357 390.115 408.405 459.479 421.306 513.451C425.127 529.245 432.545 543.943 442.98 556.398C453.416 568.853 466.588 578.73 481.469 585.257C481.469 585.257 446.466 597.591 454.335 616.56C462.204 635.529 492.372 623.319 502.214 617.177C512.057 611.035 524.415 592.633 526.142 580.349C527.239 574.072 527.652 567.696 527.375 561.33C527.375 561.33 567.262 557.038 594.273 534.936C594.273 534.936 618.224 553.955 635.417 550.279C652.611 546.604 677.155 515.893 674.688 488.29C672.221 460.688 656.311 460.712 646.592 464.906C641.547 466.813 636.946 469.735 633.074 473.49C633.074 473.49 647.184 456.223 633.074 432.37C628.91 425.373 623.207 419.416 616.399 414.95C609.591 410.484 601.856 407.626 593.779 406.592C593.779 406.592 586.379 367.297 564.326 352.571C542.274 337.845 463.659 322.6 432.357 390.115Z" fill="white"/>
<path d="M614.721 413.968C603.334 432.963 587.576 448.966 568.758 460.644C549.941 472.323 528.607 479.34 506.531 481.112C457.689 485.404 430.309 475.784 417.729 469.099C419.255 442.261 424.229 415.732 432.529 390.164C463.832 322.65 542.397 337.993 564.499 352.719C586.601 367.445 593.951 406.74 593.951 406.74C601.306 407.663 608.383 410.126 614.721 413.968ZM646.591 464.906C641.546 466.813 636.946 469.735 633.074 473.49C636.061 469.371 638.031 464.604 638.821 459.578C605.644 476.105 608.234 511.379 604.114 511.379C599.033 511.379 596.517 493.643 596.517 493.643C596.517 493.643 590.177 518.976 552.116 536.737C514.054 554.497 471.01 540.536 471.01 540.536C471.01 540.536 479.89 560.812 457.073 558.271C450.669 557.659 444.53 555.417 439.238 551.759C450.18 566.347 464.712 577.853 481.419 585.159C481.419 585.159 446.417 597.492 454.285 616.461C462.154 635.431 492.347 623.22 502.165 617.078C511.982 610.936 524.365 592.534 526.092 580.25C527.189 573.974 527.603 567.597 527.325 561.231C527.325 561.231 567.212 556.939 594.223 534.837C594.223 534.837 618.175 553.856 635.368 550.181C652.561 546.505 677.105 515.794 674.638 488.192C672.171 460.589 656.31 460.712 646.591 464.906Z" fill="#53b929"/>
<path opacity="0.5" d="M614.721 413.968C603.334 432.963 587.576 448.966 568.758 460.644C549.941 472.323 528.607 479.34 506.531 481.112C457.689 485.404 430.309 475.784 417.729 469.099C419.255 442.261 424.229 415.732 432.529 390.164C463.832 322.65 542.397 337.993 564.499 352.719C586.601 367.445 593.951 406.74 593.951 406.74C601.306 407.663 608.383 410.126 614.721 413.968ZM646.591 464.906C641.546 466.813 636.946 469.735 633.074 473.49C636.061 469.371 638.031 464.604 638.821 459.578C605.644 476.105 608.234 511.379 604.114 511.379C599.033 511.379 596.517 493.643 596.517 493.643C596.517 493.643 590.177 518.976 552.116 536.737C514.054 554.497 471.01 540.536 471.01 540.536C471.01 540.536 479.89 560.812 457.073 558.271C450.669 557.659 444.53 555.417 439.238 551.759C450.18 566.347 464.712 577.853 481.419 585.159C481.419 585.159 446.417 597.492 454.285 616.461C462.154 635.431 492.347 623.22 502.165 617.078C511.982 610.936 524.365 592.534 526.092 580.25C527.189 573.974 527.603 567.597 527.325 561.231C527.325 561.231 567.212 556.939 594.223 534.837C594.223 534.837 618.175 553.856 635.368 550.181C652.561 546.505 677.105 515.794 674.638 488.192C672.171 460.589 656.31 460.712 646.591 464.906Z" fill="white"/>
<path d="M527.498 561.379C514.259 561.732 501.117 559.044 489.079 553.524C477.041 548.003 466.43 539.796 458.06 529.534" stroke="#263238" stroke-width="1.1133" stroke-linecap="round" stroke-linejoin="round"/>
<path d="M432.357 390.115C432.357 390.115 408.405 459.479 421.306 513.451C425.127 529.245 432.545 543.943 442.98 556.398C453.416 568.853 466.588 578.73 481.469 585.257C481.469 585.257 446.466 597.591 454.335 616.56C462.204 635.529 492.372 623.319 502.214 617.177C512.057 611.035 524.415 592.633 526.142 580.349C527.239 574.072 527.652 567.696 527.375 561.33C527.375 561.33 567.262 557.038 594.273 534.936C594.273 534.936 618.224 553.955 635.417 550.279C652.611 546.604 677.155 515.893 674.688 488.29C672.221 460.688 656.311 460.712 646.592 464.906C641.547 466.813 636.946 469.735 633.074 473.49C633.074 473.49 647.184 456.223 633.074 432.37C628.91 425.373 623.207 419.416 616.399 414.95C609.591 410.484 601.856 407.626 593.779 406.592C593.779 406.592 586.379 367.297 564.326 352.571C542.274 337.845 463.659 322.6 432.357 390.115Z" stroke="#263238" stroke-width="1.1133" stroke-linecap="round" stroke-linejoin="round"/>
<path d="M633.074 473.589C633.074 473.589 620.198 482.198 614.056 508.592" stroke="#263238" stroke-width="1.1133" stroke-linecap="round" stroke-linejoin="round"/>
<path d="M656.73 484.886C655.225 489.376 651.106 492.064 647.554 490.856C644.002 489.647 642.374 485.034 643.878 480.545C645.383 476.055 649.503 473.367 653.055 474.575C656.607 475.784 658.259 480.397 656.73 484.886Z" fill="white" stroke="#263238" stroke-width="1.1133" stroke-linecap="round" stroke-linejoin="round"/>
<path d="M669.434 492.878C667.929 497.368 663.81 500.057 660.258 498.848C656.706 497.639 655.053 493.026 656.582 488.537C658.112 484.048 662.206 481.359 665.758 482.568C669.311 483.776 670.963 488.389 669.434 492.878Z" fill="white" stroke="#263238" stroke-width="1.1133" stroke-linecap="round" stroke-linejoin="round"/>
<path d="M672.147 504.842C671.654 505.668 670.938 506.337 670.08 506.772C669.223 507.206 668.26 507.389 667.302 507.298C666.345 507.207 665.434 506.847 664.673 506.258C663.913 505.67 663.335 504.878 663.007 503.974C662.678 503.071 662.613 502.093 662.819 501.153C663.024 500.214 663.492 499.353 664.167 498.669C664.843 497.985 665.698 497.506 666.635 497.289C667.572 497.072 668.55 497.125 669.458 497.442C670.768 498.097 671.777 499.229 672.277 500.606C672.778 501.983 672.731 503.499 672.147 504.842Z" fill="white" stroke="#263238" stroke-width="1.1133" stroke-linecap="round" stroke-linejoin="round"/>
<path d="M655.94 521.271C651.5 529.287 642.62 532.839 636.083 529.213C629.546 525.587 627.869 516.189 632.309 508.172C636.749 500.155 645.629 496.603 652.166 500.229C658.703 503.855 660.38 513.254 655.94 521.271Z" fill="white" stroke="#263238" stroke-width="1.1133" stroke-linecap="round" stroke-linejoin="round"/>
<path d="M481.469 585.307C489.738 589.155 499.137 589.814 507.863 587.157" stroke="#263238" stroke-width="1.1133" stroke-linecap="round" stroke-linejoin="round"/>
<path d="M454.458 616.61C454.458 616.61 456.925 606.175 472.243 598.824" stroke="#263238" stroke-width="1.1133" stroke-linecap="round" stroke-linejoin="round"/>
<path d="M469.802 625.835C469.802 625.835 475.944 611.035 486.378 604.35" stroke="#263238" stroke-width="1.1133" stroke-linecap="round" stroke-linejoin="round"/>
<path d="M227.742 456.026C225.132 453.943 223.052 451.274 221.672 448.234C220.291 445.194 219.65 441.871 219.799 438.536V380.05H68.9338C65.2485 380.189 61.577 379.528 58.1709 378.115C54.7647 376.701 51.7045 374.568 49.2 371.861C44.2655 366.641 41.5581 359.704 41.6518 352.522C41.6318 346.685 43.3492 340.975 46.5852 336.118L191.086 109.031C201.94 92.274 216.362 83.8954 234.352 83.8954C244.025 83.5668 253.469 86.8762 260.82 93.1703C267.875 99.3371 271.403 108.505 271.403 120.674V341.422H309.785C312.436 341.262 315.09 341.687 317.558 342.668C320.026 343.648 322.248 345.16 324.067 347.095C327.313 350.899 329.096 355.736 329.096 360.736C329.096 365.736 327.313 370.573 324.067 374.377C322.248 376.312 320.026 377.824 317.558 378.804C315.09 379.785 312.436 380.21 309.785 380.05H271.131V438.536C271.291 441.846 270.682 445.148 269.351 448.183C268.02 451.217 266.003 453.902 263.46 456.026C258.494 460.189 252.203 462.437 245.724 462.365C239.173 462.417 232.811 460.174 227.742 456.026ZM219.7 341.422V138.163L93.1817 341.422H219.7Z" fill="#263238"/>
<path d="M437.093 457.21C422.306 450.757 409.212 440.972 398.834 428.62C388.409 415.57 380.269 400.85 374.758 385.083C368.512 368.049 364.121 350.393 361.66 332.418C359.093 312.848 357.857 293.127 357.96 273.389C357.96 143.36 402.361 78.3452 491.163 78.3452C579.965 78.3452 624.26 143.36 624.046 273.389C624.134 293.032 622.939 312.66 620.469 332.147C618.089 350.124 613.738 367.785 607.494 384.811C601.983 400.578 593.843 415.299 583.419 428.349C573.027 440.717 559.939 450.539 545.16 457.062C528.168 464.574 509.738 468.278 491.163 467.915C472.579 468.288 454.133 464.636 437.093 457.21ZM517.409 419.888C524.839 416.718 531.583 412.136 537.266 406.395C543.021 400.268 547.752 393.255 551.277 385.625C555.168 377.541 558.314 369.12 560.676 360.465C563.163 351.035 564.976 341.439 566.102 331.752C567.434 321.063 568.322 311.27 568.767 302.373C569.211 293.477 569.424 283.815 569.408 273.389C569.408 262.453 569.194 252.356 568.767 243.098C568.339 233.839 567.41 223.907 565.979 213.3C564.751 203.619 562.897 194.028 560.429 184.587C558.094 176.019 554.947 167.693 551.031 159.722C547.478 152.213 542.739 145.325 536.995 139.323C531.346 133.697 524.639 129.246 517.261 126.224C500.395 119.713 481.709 119.713 464.843 126.224C457.52 129.209 450.862 133.62 445.258 139.199C439.556 145.175 434.829 152.009 431.247 159.451C427.295 167.35 424.186 175.643 421.972 184.192C419.564 193.69 417.751 203.329 416.545 213.053C415.114 223.808 414.185 233.823 413.757 243.098C413.33 252.373 413.108 262.47 413.091 273.389C413.091 283.799 413.313 293.501 413.757 302.497C414.201 311.492 415.081 321.359 416.397 332.097C417.535 341.783 419.348 351.377 421.824 360.81C424.152 369.462 427.265 377.884 431.123 385.971C434.613 393.554 439.302 400.526 445.011 406.617C450.651 412.321 457.356 416.863 464.745 419.987C481.627 426.86 500.527 426.86 517.409 419.987V419.888Z" fill="#263238"/>
<path d="M852.613 456.026C850.003 453.943 847.923 451.274 846.543 448.234C845.162 445.194 844.521 441.871 844.67 438.536V380.05H693.805C690.12 380.189 686.448 379.528 683.042 378.115C679.636 376.701 676.576 374.568 674.071 371.861C669.137 366.641 666.429 359.704 666.523 352.522C666.503 346.685 668.22 340.975 671.456 336.118L815.957 109.031C826.712 92.274 841.093 83.8953 859.1 83.8953C868.823 83.5292 878.326 86.841 885.716 93.1702C892.771 99.337 896.298 108.505 896.298 120.674V341.422H934.681C937.332 341.262 939.985 341.687 942.454 342.668C944.922 343.648 947.144 345.16 948.963 347.095C952.209 350.899 953.991 355.736 953.991 360.736C953.991 365.736 952.209 370.573 948.963 374.377C947.144 376.312 944.922 377.824 942.454 378.804C939.985 379.785 937.332 380.21 934.681 380.05H896.002V438.536C896.162 441.846 895.553 445.148 894.222 448.183C892.891 451.217 890.874 453.902 888.331 456.026C883.365 460.189 877.074 462.437 870.595 462.365C864.044 462.417 857.682 460.174 852.613 456.026ZM844.67 341.422V138.163L718.151 341.422H844.67Z" fill="#263238"/>
<path d="M382.627 355.137C382.627 355.137 356.85 391.348 353.175 428.176C349.499 465.004 353.791 489.548 364.842 498.774C375.893 508 386.919 504.299 393.061 495.691C399.204 487.082 389.386 457.012 389.386 457.012C389.386 457.012 399.82 428.176 415.78 407.924C431.74 387.673 434.798 384.589 434.798 384.589C434.798 384.589 407.171 353.286 382.627 355.137Z" fill="white"/>
<path d="M382.627 355.137C377.002 363.448 372.013 372.172 367.703 381.234C380.037 386.168 399.154 396.282 411.29 414.19C412.77 412.044 414.3 409.922 415.878 407.924C431.838 387.673 434.897 384.589 434.897 384.589C434.897 384.589 407.171 353.286 382.627 355.137Z" fill="#53b929"/>
<path opacity="0.5" d="M382.627 355.137C377.002 363.448 372.013 372.172 367.703 381.234C380.037 386.168 399.154 396.282 411.29 414.19C412.77 412.044 414.3 409.922 415.878 407.924C431.838 387.673 434.897 384.589 434.897 384.589C434.897 384.589 407.171 353.286 382.627 355.137Z" fill="white"/>
<path d="M382.627 355.137C382.627 355.137 356.85 391.348 353.175 428.176C349.499 465.004 353.791 489.548 364.842 498.774C375.893 508 386.919 504.299 393.061 495.691C399.204 487.082 389.386 457.012 389.386 457.012C389.386 457.012 399.82 428.176 415.78 407.924C431.74 387.673 434.798 384.589 434.798 384.589C434.798 384.589 407.171 353.286 382.627 355.137Z" stroke="#263238" stroke-width="1.1133" stroke-linecap="round" stroke-linejoin="round"/>
<path d="M364.843 498.774C361.829 490.726 360.364 482.181 360.526 473.589" stroke="#263238" stroke-width="1.1133" stroke-linecap="round" stroke-linejoin="round"/>
<path d="M381.394 502.45C381.394 502.45 375.277 492.015 374.66 474.206" stroke="#263238" stroke-width="1.1133" stroke-linecap="round" stroke-linejoin="round"/>
<path d="M390.62 420.801C390.62 414.338 378.286 401.708 361.142 396.134C358.838 402.143 356.934 408.299 355.444 414.56C362.105 415.7 368.573 417.767 374.66 420.702C383.861 425.71 390.62 428.176 390.62 420.801Z" fill="#53b929" stroke="#263238" stroke-width="1.1133" stroke-linecap="round" stroke-linejoin="round"/>
<path d="M381.122 357.332C377.146 363.394 373.49 369.659 370.17 376.104C375.361 377.476 380.34 379.551 384.97 382.271C403.989 393.297 407.664 394.604 401.547 378.571C397.847 368.506 389.016 361.673 381.122 357.332Z" fill="#53b929" stroke="#263238" stroke-width="1.1133" stroke-linecap="round" stroke-linejoin="round"/>
<path d="M584.528 337.253C584.528 337.253 613.734 370.751 621.011 407.061C628.288 443.371 626.438 468.211 616.325 478.448C606.211 488.685 594.889 486.12 587.933 478.152C580.976 470.185 587.933 439.326 587.933 439.326C587.933 439.326 574.711 411.624 556.852 393.025C538.993 374.426 535.613 371.688 535.613 371.688C535.613 371.688 559.911 337.82 584.528 337.253Z" fill="white"/>
<path d="M584.529 337.253C559.861 337.82 535.49 371.787 535.49 371.787C535.49 371.787 538.845 374.55 556.729 393.124C560.073 396.646 563.219 400.352 566.152 404.224C575.486 388.458 588.82 375.438 604.805 366.483C598.923 356.16 592.138 346.378 584.529 337.253Z" fill="#53b929"/>
<path opacity="0.5" d="M584.529 337.253C559.861 337.82 535.49 371.787 535.49 371.787C535.49 371.787 538.845 374.55 556.729 393.124C560.073 396.646 563.219 400.352 566.152 404.224C575.486 388.458 588.82 375.438 604.805 366.483C598.923 356.16 592.138 346.378 584.529 337.253Z" fill="white"/>
<path d="M584.528 337.253C584.528 337.253 613.734 370.751 621.011 407.061C628.288 443.371 626.438 468.211 616.325 478.448C606.211 488.685 594.889 486.12 587.933 478.152C580.976 470.185 587.933 439.326 587.933 439.326C587.933 439.326 574.711 411.624 556.852 393.025C538.993 374.426 535.613 371.688 535.613 371.688C535.613 371.688 559.911 337.82 584.528 337.253Z" stroke="#263238" stroke-width="1.1133" stroke-linecap="round" stroke-linejoin="round"/>
<path d="M616.325 478.448C618.536 470.154 619.156 461.516 618.151 452.992" stroke="#263238" stroke-width="1.1133" stroke-linecap="round" stroke-linejoin="round"/>
<path d="M600.192 483.727C600.192 483.727 605.298 472.75 604.164 454.965" stroke="#263238" stroke-width="1.1133" stroke-linecap="round" stroke-linejoin="round"/>
<path d="M583.025 403.386C582.408 396.948 593.434 383.183 609.961 376.054C612.82 381.804 615.292 387.737 617.361 393.815C610.857 395.629 604.632 398.326 598.861 401.832C590.227 407.629 583.765 410.638 583.025 403.386Z" fill="#53b929" stroke="#263238" stroke-width="1.1133" stroke-linecap="round" stroke-linejoin="round"/>
<path d="M586.231 339.3C590.768 344.898 595 350.736 598.91 356.789C593.86 358.659 589.089 361.206 584.726 364.362C566.891 377.238 563.339 378.817 567.878 362.339C570.715 352.053 578.806 344.382 586.231 339.3Z" fill="#53b929" stroke="#263238" stroke-width="1.1133" stroke-linecap="round" stroke-linejoin="round"/>
<path d="M380.209 323.809C380.209 323.809 372.612 349.438 375.473 359.873C378.335 370.307 391.606 360.835 404.901 372.206C418.197 383.578 430.506 404.101 480.852 407.9C531.198 411.699 561.588 384.54 572.121 369.345C582.654 354.15 581.618 336.118 599.649 335.181C617.681 334.243 602.511 299.092 596.813 293.394C596.813 293.394 631.939 241.174 631.939 227.878C631.939 214.582 598.712 217.419 557.937 229.777C557.937 229.777 527.547 213.62 472.465 223.117C417.383 232.614 401.251 248.771 401.251 248.771C401.251 248.771 332.873 257.306 328.137 265.841C323.401 274.376 337.486 310.513 380.209 323.809Z" fill="white"/>
<path d="M599.576 335.205C617.633 334.243 602.438 299.117 596.739 293.419C596.739 293.419 603.424 283.552 610.948 271.219C590.548 260.562 570.518 254.642 565.19 260.636C553.72 273.513 559.96 298.18 565.19 322.304C570.419 346.429 549.526 356.715 534.923 377.584C520.32 398.452 499.476 375.487 499.476 375.487C492.076 405.754 460.872 385.921 460.872 385.921C436.896 378.521 396.219 354.643 404.557 337.943C412.894 321.244 414.991 305.605 400.388 292.062C385.785 278.52 327.546 267.247 327.546 267.247C324.487 277.533 339.263 311.229 380.235 323.982C380.235 323.982 372.637 349.611 375.499 360.045C378.36 370.48 391.631 361.007 404.927 372.379C418.222 383.751 430.531 404.274 480.877 408.073C531.223 411.871 561.613 384.713 572.146 369.518C582.679 354.323 581.52 336.143 599.576 335.205Z" fill="#53b929"/>
<path opacity="0.5" d="M599.576 335.205C617.633 334.243 602.438 299.117 596.739 293.419C596.739 293.419 603.424 283.552 610.948 271.219C590.548 260.562 570.518 254.642 565.19 260.636C553.72 273.513 559.96 298.18 565.19 322.304C570.419 346.429 549.526 356.715 534.923 377.584C520.32 398.452 499.476 375.487 499.476 375.487C492.076 405.754 460.872 385.921 460.872 385.921C436.896 378.521 396.219 354.643 404.557 337.943C412.894 321.244 414.991 305.605 400.388 292.062C385.785 278.52 327.546 267.247 327.546 267.247C324.487 277.533 339.263 311.229 380.235 323.982C380.235 323.982 372.637 349.611 375.499 360.045C378.36 370.48 391.631 361.007 404.927 372.379C418.222 383.751 430.531 404.274 480.877 408.073C531.223 411.871 561.613 384.713 572.146 369.518C582.679 354.323 581.52 336.143 599.576 335.205Z" fill="white"/>
<path d="M525.303 340.928C526.019 346.947 512.649 353.435 495.505 355.433C478.361 357.431 463.857 354.175 463.142 348.032C462.426 341.89 475.796 335.551 492.964 333.553C510.133 331.555 524.612 334.934 525.303 340.928Z" fill="#53b929"/>
<path opacity="0.5" d="M525.303 340.928C526.019 346.947 512.649 353.435 495.505 355.433C478.361 357.431 463.857 354.175 463.142 348.032C462.426 341.89 475.796 335.551 492.964 333.553C510.133 331.555 524.612 334.934 525.303 340.928Z" fill="white"/>
<path d="M380.209 323.809C380.209 323.809 372.612 349.438 375.473 359.873C378.335 370.307 391.606 360.835 404.901 372.206C418.197 383.578 430.506 404.101 480.852 407.9C531.198 411.699 561.588 384.54 572.121 369.345C582.654 354.15 581.618 336.118 599.649 335.181C617.681 334.243 602.511 299.092 596.813 293.394C596.813 293.394 631.939 241.174 631.939 227.878C631.939 214.582 598.712 217.419 557.937 229.777C557.937 229.777 527.547 213.62 472.465 223.117C417.383 232.614 401.251 248.771 401.251 248.771C401.251 248.771 332.873 257.306 328.137 265.841C323.401 274.376 337.486 310.513 380.209 323.809Z" stroke="#263238" stroke-width="1.1133" stroke-miterlimit="10"/>
<path d="M576.61 247.834C551.943 264.41 560.651 280.987 571.677 290.188C578.411 295.812 589.265 295.121 596.689 293.542C596.689 293.542 631.816 241.322 631.816 228.026C631.84 227.903 601.154 231.134 576.61 247.834Z" fill="#53b929" stroke="#263238" stroke-width="1.1133" stroke-miterlimit="10"/>
<path d="M327.521 267.074C324.462 277.361 339.238 311.056 380.21 323.809C380.21 323.809 411.488 320.75 401.054 295.59C391.311 272.107 342.05 266.26 327.521 267.074Z" fill="#53b929" stroke="#263238" stroke-width="1.1133" stroke-miterlimit="10"/>
<path d="M472.317 223.167C469.086 223.734 465.978 224.326 462.993 224.918C467.927 249.832 476.042 291.322 483.294 291.322C490.546 291.322 496.097 245.836 498.465 220.355C489.697 220.724 480.963 221.663 472.317 223.167Z" fill="#53b929" stroke="#263238" stroke-width="1.1133" stroke-miterlimit="10"/>
<path d="M444.024 283.922C451.572 279.482 450.438 246.107 449.229 228.001C441.438 229.937 433.77 232.334 426.264 235.18C429.002 252.126 435.958 288.658 444.024 283.922Z" fill="#53b929" stroke="#263238" stroke-width="1.1133" stroke-miterlimit="10"/>
<path d="M517.064 268.579C524.784 271.292 529.126 243.542 531.568 222.18C523.77 220.909 515.886 220.241 507.986 220.182C507.739 237.72 508.701 265.644 517.064 268.579Z" fill="#53b929" stroke="#263238" stroke-width="1.1133" stroke-miterlimit="10"/>
<path d="M506.729 364.633C499.525 362.74 491.869 363.684 485.342 367.273C485.056 367.438 484.812 367.668 484.631 367.944C484.449 368.22 484.335 368.535 484.297 368.863C484.258 369.192 484.297 369.524 484.41 369.835C484.523 370.145 484.707 370.425 484.947 370.652L498.046 382.986C498.291 383.216 498.588 383.384 498.912 383.477C499.235 383.57 499.576 383.584 499.906 383.519C500.236 383.454 500.546 383.311 500.81 383.103C501.074 382.894 501.285 382.626 501.425 382.32L508.135 367.519C508.255 367.239 508.313 366.937 508.306 366.632C508.298 366.328 508.225 366.029 508.092 365.755C507.958 365.481 507.768 365.239 507.532 365.046C507.297 364.852 507.023 364.711 506.729 364.633Z" fill="#53b929" stroke="#263238" stroke-width="1.1133" stroke-linecap="round" stroke-linejoin="round"/>
<path d="M475.598 344.036C477.399 348.797 476.684 353.484 473.995 354.495C471.306 355.507 467.655 352.497 465.83 347.761C464.005 343.025 464.745 338.313 467.433 337.302C470.122 336.291 473.773 339.3 475.598 344.036Z" fill="#263238"/>
<path d="M511.317 340.657C510.379 345.59 511.909 350.154 514.745 350.672C517.582 351.19 520.641 347.588 521.578 342.581C522.516 337.573 520.986 333.109 518.15 332.566C515.313 332.023 512.254 335.674 511.317 340.657Z" fill="#263238"/>
<path d="M501.425 382.295C501.425 382.295 483.911 406.074 467.951 382.147" stroke="#263238" stroke-width="1.1133" stroke-linecap="round" stroke-linejoin="round"/>
<path d="M498.045 382.961C498.045 382.961 509.688 395.023 521.972 388.265C534.256 381.506 526.906 370.998 526.906 370.998" stroke="#263238" stroke-width="1.1133" stroke-linecap="round" stroke-linejoin="round"/>
<path d="M444.641 325.042C444.641 325.042 448.933 309.699 469.185 313.375" stroke="#263238" stroke-width="3.33991" stroke-linecap="round" stroke-linejoin="round"/>
<path d="M506.013 310.933C506.013 310.933 521.356 301.732 535.465 316.458" stroke="#263238" stroke-width="3.33991" stroke-linecap="round" stroke-linejoin="round"/>
<path d="M432.974 366.188L447.7 369.863" stroke="#263238" stroke-width="1.1133" stroke-miterlimit="10" stroke-linecap="round"/>
<path d="M445.85 375.388L432.974 377.83" stroke="#263238" stroke-width="1.1133" stroke-miterlimit="10" stroke-linecap="round"/>
<path d="M448.316 382.147L439.115 387.056" stroke="#263238" stroke-width="1.1133" stroke-miterlimit="10" stroke-linecap="round"/>
<path d="M541.607 359.429L554.508 356.345" stroke="#263238" stroke-width="1.1133" stroke-miterlimit="10" stroke-linecap="round"/>
<path d="M544.074 365.571H552.658" stroke="#263238" stroke-width="1.1133" stroke-miterlimit="10" stroke-linecap="round"/>
<path d="M545.899 371.713L557.567 374.772" stroke="#263238" stroke-width="1.1133" stroke-miterlimit="10" stroke-linecap="round"/>
</svg>
